mtllib ./platform 2 base.mtl
o UModeler Object
v -1.5 0 2.5
v 1.5 0 2.5
v 1.5 0 -2.5
v -1.5 0 -2.5
v -1.5 0.5 2.5
v -1.5 0.5 -2.5
v 1.5 0.5 -2.5
v 1.5 0.5 2.5
v 1.65625 0.15625 2.5
v 1.65625 0.34375 2.5
v 1.65625 0.34375 -2.5
v 1.65625 0.15625 -2.5
v -1.65625 0.15625 -2.5
v -1.65625 0.34375 -2.5
v -1.65625 0.34375 2.5
v -1.65625 0.15625 2.5
v 1.5 0.40625 2.5
v 1.5 0.09375 2.5
v 1.59375 0.1875 2.5
v 1.59375 0.3125 2.5
v -1.5 0.40625 2.5
v -1.5 0.09375 2.5
v -1.59375 0.1875 2.5
v -1.59375 0.3125 2.5
v -1.5 0.40625 -2.5
v -1.5 0.09375 -2.5
v -1.59375 0.1875 -2.5
v -1.59375 0.3125 -2.5
v 1.5 0.40625 -2.5
v 1.5 0.09375 -2.5
v 1.59375 0.1875 -2.5
v 1.59375 0.3125 -2.5

vt -1.5 -2.5
vt 1.5 -2.5
vt 1.5 2.5
vt -1.5 2.5
vt -2.5 0.15625
vt -2.5 0.34375
vt 2.5 0.34375
vt 2.5 0.15625
vt 1.65625 2.5
vt 1.65625 -2.5
vt -1.65625 2.5
vt -1.65625 -2.5
vt 1.5 0.40625
vt 1.5 0.5
vt 1.65625 0.34375
vt 1.65625 0.15625
vt 1.5 0
vt 1.5 0.09375
vt 1.59375 0.1875
vt 1.59375 0.3125
vt -1.5 0.5
vt -1.5 0
vt -1.5 0.40625
vt -1.5 0.09375
vt -1.59375 0.1875
vt -1.59375 0.3125
vt -1.65625 0.15625
vt -1.65625 0.34375

vn 0 -1 0
vn 0 1 0
vn 1 0 0
vn 0.7071068 -0.7071068 0
vn 0.7071068 0.7071068 0
vn -1 0 0
vn -0.7071068 -0.7071068 0
vn -0.7071068 0.7071068 0
vn 0 0 1
vn 0 0 -1

usemtl M_YMMR_11
f 3/3/1 2/2/1 1/1/1
f 4/4/1 3/3/1 1/1/1
f 7/1/2 6/2/2 5/3/2
f 8/4/2 7/1/2 5/3/2
f 11/7/3 10/6/3 9/5/3
f 12/8/3 11/7/3 9/5/3
f 2/2/4 3/3/4 12/9/4
f 9/10/4 2/2/4 12/9/4
f 7/1/5 8/4/5 10/11/5
f 11/12/5 7/1/5 10/11/5
f 15/7/6 14/6/6 13/5/6
f 16/8/6 15/7/6 13/5/6
f 4/4/7 1/1/7 16/12/7
f 13/11/7 4/4/7 16/12/7
f 5/3/8 6/2/8 14/10/8
f 15/9/8 5/3/8 14/10/8
f 18/18/9 2/17/9 9/16/9
f 18/18/9 9/16/9 19/19/9
f 19/19/9 9/16/9 20/20/9
f 20/20/9 9/16/9 10/15/9
f 20/20/9 10/15/9 17/13/9
f 17/13/9 10/15/9 8/14/9
f 20/20/9 17/13/9 18/18/9
f 19/19/9 20/20/9 18/18/9
f 2/17/9 8/14/9 5/21/9
f 1/22/9 2/17/9 5/21/9
f 23/25/9 22/24/9 21/23/9
f 24/26/9 23/25/9 21/23/9
f 1/22/9 22/24/9 16/27/9
f 16/27/9 22/24/9 23/25/9
f 16/27/9 23/25/9 24/26/9
f 16/27/9 24/26/9 15/28/9
f 15/28/9 24/26/9 21/23/9
f 15/28/9 21/23/9 5/21/9
f 26/18/10 4/17/10 13/16/10
f 26/18/10 13/16/10 27/19/10
f 27/19/10 13/16/10 28/20/10
f 28/20/10 13/16/10 14/15/10
f 28/20/10 14/15/10 25/13/10
f 25/13/10 14/15/10 6/14/10
f 28/20/10 25/13/10 26/18/10
f 27/19/10 28/20/10 26/18/10
f 4/17/10 6/14/10 7/21/10
f 3/22/10 4/17/10 7/21/10
f 31/25/10 30/24/10 29/23/10
f 32/26/10 31/25/10 29/23/10
f 3/22/10 30/24/10 12/27/10
f 12/27/10 30/24/10 31/25/10
f 12/27/10 31/25/10 32/26/10
f 12/27/10 32/26/10 11/28/10
f 11/28/10 32/26/10 29/23/10
f 11/28/10 29/23/10 7/21/10

