mtllib ./platform 6 emission.mtl
o UModeler Object
v -2.6875 0.3447499 -2.5
v -2.5 0.5009995 -2.5
v -2.5 0.5009995 2.5
v -2.6875 0.3447499 2.5
v -2.6875 0.1572499 -2.5
v -2.6875 0.1572499 2.5
v -2.5 0.0009999275 2.5
v -2.5 0.0009999275 -2.5
v -2.5 0.4058442 -2.5
v -2.5 0.09365641 -2.5
v -2.622377 0.1873127 -2.5
v -2.622377 0.3121879 -2.5
v -2.5 0.09365642 2.5
v -2.5 0.4058442 2.5
v -2.622377 0.3121879 2.5
v -2.622377 0.1873127 2.5
v 2.684815 0.3434066 0.03121879
v 2.684815 0.156094 0.03121879
v 2.684815 0.156094 5.057442
v 2.684815 0.3434066 5.057442
v 2.497502 0.09365641 0.03121879
v 2.497502 7.078052E-08 0.03121879
v 2.497502 0.4995005 0.03121879
v 2.497502 0.4058442 0.03121879
v 2.622377 0.3121879 0.03121879
v 2.622377 0.1873127 0.03121879
v 2.497502 7.078052E-08 5.057442
v 2.497502 0.4058442 5.057442
v 2.497502 0.4995005 5.057442
v 2.497502 0.09365641 5.057442
v 2.622377 0.1873127 5.057442
v 2.622377 0.3121879 5.057442
v -2.31019 0.4692307 1.32992
v -2.31019 0.4692307 1.08017
v -1.685814 0.3131368 1.642108
v -1.685814 0.3131368 1.891858
v -2.31019 0.4692307 0.3309192
v -2.31019 0.4692307 0.08116902
v -1.685814 0.3131368 0.6431071
v -1.685814 0.3131368 0.8928573
v -2.31019 0.4692307 -0.6680816
v -2.31019 0.4692307 -0.9178319
v -1.685814 0.3131368 -0.3558939
v -1.685814 0.3131368 -0.1061436
v -2.31019 0.4692307 -1.667083
v -2.31019 0.4692307 -1.916833
v -1.685814 0.3131368 -1.354895
v -1.685814 0.3131368 -1.105145
v 2.310189 0.4682817 1.685814
v 2.310189 0.4682817 1.935564
v 1.685814 0.3121879 2.497502
v 1.685814 0.3121879 2.247752
v 2.310189 0.4682817 0.6868131
v 2.310189 0.4682817 0.9365634
v 1.685814 0.3121879 1.498501
v 1.685814 0.3121879 1.248751
v 2.310189 0.4682817 2.684815
v 2.310189 0.4682817 2.934565
v 1.685814 0.3121879 3.496503
v 1.685814 0.3121879 3.246753
v 2.310189 0.4682817 3.683816
v 2.310189 0.4682817 3.933566
v 1.685814 0.3121879 4.495504
v 1.685814 0.3121879 4.245754

vt 2.6875 -2.5
vt 2.5 -2.5
vt 2.5 2.5
vt 2.6875 2.5
vt -2.5 0.1572499
vt -2.5 0.3447499
vt 2.5 0.3447499
vt 2.5 0.1572499
vt -2.6875 -2.5
vt -2.5 -2.5
vt -2.5 2.5
vt -2.6875 2.5
vt 2.5 0.4058442
vt 2.5 0.5009995
vt 2.6875 0.3447499
vt 2.6875 0.1572499
vt 2.5 0.0009999275
vt 2.5 0.09365642
vt 2.622377 0.1873127
vt 2.622377 0.3121879
vt -2.5 0.09365642
vt -2.5 0.0009999275
vt -2.6875 0.1572499
vt -2.6875 0.3447499
vt -2.5 0.5009995
vt -2.5 0.4058442
vt -2.622377 0.3121879
vt -2.622377 0.1873127
vt -0.03121877 0.3434066
vt -0.03121877 0.156094
vt -5.057442 0.156094
vt -5.057442 0.3434066
vt -2.497502 0.09365642
vt -2.497502 5.960464E-08
vt -2.684815 0.156094
vt -2.684815 0.3434066
vt -2.497502 0.4995005
vt -2.497502 0.4058442
vt 2.684815 -0.03121877
vt 2.497502 -0.03121877
vt 2.497502 -5.057442
vt 2.684815 -5.057442
vt 2.497502 0.4058442
vt 2.497502 0.4995005
vt 2.684815 0.3434066
vt 2.684815 0.156094
vt 2.497502 5.960464E-08
vt 2.497502 0.09365642
vt -2.684815 5.057442
vt -2.497502 5.057442
vt -2.497502 0.0312188
vt -2.684815 0.0312188
vt 2.31019 1.32992
vt 2.31019 1.08017
vt 1.685814 1.642108
vt 1.685814 1.891858
vt 2.31019 0.3309192
vt 2.31019 0.08116901
vt 1.685814 0.6431071
vt 1.685814 0.8928573
vt 2.31019 -0.6680816
vt 2.31019 -0.9178319
vt 1.685814 -0.3558939
vt 1.685814 -0.1061437
vt 2.31019 -1.667083
vt 2.31019 -1.916833
vt 1.685814 -1.354895
vt 1.685814 -1.105145
vt -2.310189 1.685814
vt -2.310189 1.935564
vt -1.685814 2.497502
vt -1.685814 2.247752
vt -2.310189 0.6868131
vt -2.310189 0.9365634
vt -1.685814 1.498501
vt -1.685814 1.248751
vt -2.310189 2.684815
vt -2.310189 2.934565
vt -1.685814 3.496503
vt -1.685814 3.246753
vt -2.310189 3.683816
vt -2.310189 3.933566
vt -1.685814 4.495504
vt -1.685814 4.245754

vn -0.6401833 0.7682223 0
vn -1 0 0
vn -0.6401844 -0.7682213 0
vn 0 0 -1
vn 0 0 1
vn 1 0 0
vn 0.6401845 -0.7682212 0
vn 0.6401846 0.7682212 0
vn 0.2425356 0.9701425 0
vn -0.2425357 0.9701425 0

usemtl red_glow
f 3/3/1 2/2/1 1/1/1
f 4/4/1 3/3/1 1/1/1
f 4/7/2 1/6/2 5/5/2
f 6/8/2 4/7/2 5/5/2
f 8/11/3 7/10/3 6/9/3
f 5/12/3 8/11/3 6/9/3
f 10/18/4 8/17/4 5/16/4
f 10/18/4 5/16/4 11/19/4
f 11/19/4 5/16/4 12/20/4
f 12/20/4 5/16/4 1/15/4
f 12/20/4 1/15/4 9/13/4
f 9/13/4 1/15/4 2/14/4
f 7/22/5 13/21/5 6/23/5
f 6/23/5 13/21/5 16/28/5
f 6/23/5 16/28/5 15/27/5
f 6/23/5 15/27/5 4/24/5
f 4/24/5 15/27/5 14/26/5
f 4/24/5 14/26/5 3/25/5
f 19/31/6 18/30/6 17/29/6
f 20/32/6 19/31/6 17/29/6
f 22/34/4 21/33/4 18/35/4
f 18/35/4 21/33/4 26/28/4
f 18/35/4 26/28/4 25/27/4
f 18/35/4 25/27/4 17/36/4
f 17/36/4 25/27/4 24/38/4
f 17/36/4 24/38/4 23/37/4
f 27/41/7 22/40/7 18/39/7
f 19/42/7 27/41/7 18/39/7
f 30/48/5 27/47/5 19/46/5
f 30/48/5 19/46/5 31/19/5
f 31/19/5 19/46/5 32/20/5
f 32/20/5 19/46/5 20/45/5
f 32/20/5 20/45/5 28/43/5
f 28/43/5 20/45/5 29/44/5
f 23/51/8 29/50/8 20/49/8
f 17/52/8 23/51/8 20/49/8
f 35/55/9 34/54/9 33/53/9
f 36/56/9 35/55/9 33/53/9
f 39/59/9 38/58/9 37/57/9
f 40/60/9 39/59/9 37/57/9
f 43/63/9 42/62/9 41/61/9
f 44/64/9 43/63/9 41/61/9
f 47/67/9 46/66/9 45/65/9
f 48/68/9 47/67/9 45/65/9
f 51/71/10 50/70/10 49/69/10
f 52/72/10 51/71/10 49/69/10
f 55/75/10 54/74/10 53/73/10
f 56/76/10 55/75/10 53/73/10
f 59/79/10 58/78/10 57/77/10
f 60/80/10 59/79/10 57/77/10
f 63/83/10 62/82/10 61/81/10
f 64/84/10 63/83/10 61/81/10

