mtllib ./platform 1 base.mtl
o UModeler Object
v -1.5 -0.25 2.5
v 1.5 -0.25 2.5
v 1.5 -0.25 -2.5
v -1.5 -0.25 -2.5
v -1.5 0.25 2.5
v -1.5 0.25 -2.5
v 1.5 0.25 -2.5
v 1.5 0.25 2.5
v 2.5 0 2.5
v 2.5 0 -2.5
v 2.5 0.5 -2.5
v 2.5 0.5 2.5
v -2.5 0.5 2.5
v -2.5 0.5 -2.5
v -2.5 0 -2.5
v -2.5 0 2.5
v 2.6875 0.34375 -2.5
v 2.6875 0.15625 -2.5
v 2.6875 0.15625 2.5
v 2.6875 0.34375 2.5
v -2.6875 0.15625 -2.5
v -2.6875 0.34375 -2.5
v -2.6875 0.34375 2.5
v -2.6875 0.15625 2.5

vt -1.5 -2.5
vt 1.5 -2.5
vt 1.5 2.5
vt -1.5 2.5
vt 2.5 -2.5
vt 2.5 2.5
vt -2.5 -2.5
vt -2.5 2.5
vt 2.5 0.34375
vt 2.5 0.15625
vt -2.5 0.15625
vt -2.5 0.34375
vt -2.6875 2.5
vt -2.6875 -2.5
vt 2.6875 2.5
vt 2.6875 -2.5
vt -2.5 0.5
vt -1.5 0.25
vt -1.5 -0.25
vt -2.5 0
vt -2.6875 0.15625
vt -2.6875 0.34375
vt 1.5 -0.25
vt 1.5 0.25
vt 2.5 0.5
vt 2.6875 0.34375
vt 2.6875 0.15625
vt 2.5 0

vn 0 -1 0
vn 0 1 0
vn 0.2425356 -0.9701425 0
vn -0.2425356 0.9701425 0
vn 0.2425356 0.9701425 0
vn -0.2425356 -0.9701425 0
vn 1 0 0
vn 0.6401844 0.7682213 0
vn 0.6401844 -0.7682213 0
vn -1 0 0
vn -0.6401844 -0.7682213 0
vn -0.6401844 0.7682213 0
vn 0 0 -1
vn 0 0 1

usemtl M_YMMR_11
f 3/3/1 2/2/1 1/1/1
f 4/4/1 3/3/1 1/1/1
f 7/1/2 6/2/2 5/3/2
f 8/4/2 7/1/2 5/3/2
f 9/5/3 2/2/3 3/3/3
f 10/6/3 9/5/3 3/3/3
f 11/7/4 7/1/4 8/4/4
f 12/8/4 11/7/4 8/4/4
f 13/6/5 5/3/5 6/2/5
f 14/5/5 13/6/5 6/2/5
f 15/8/6 4/4/6 1/1/6
f 16/7/6 15/8/6 1/1/6
f 19/11/7 18/10/7 17/9/7
f 20/12/7 19/11/7 17/9/7
f 11/7/8 12/8/8 20/13/8
f 17/14/8 11/7/8 20/13/8
f 9/5/9 10/6/9 18/15/9
f 19/16/9 9/5/9 18/15/9
f 23/9/10 22/12/10 21/11/10
f 24/10/10 23/9/10 21/11/10
f 15/8/11 16/7/11 24/14/11
f 21/13/11 15/8/11 24/14/11
f 13/6/12 14/5/12 22/16/12
f 23/15/12 13/6/12 22/16/12
f 3/19/13 7/18/13 11/17/13
f 10/20/13 3/19/13 11/17/13
f 17/22/13 18/21/13 10/20/13
f 11/17/13 17/22/13 10/20/13
f 7/18/13 3/19/13 4/23/13
f 6/24/13 7/18/13 4/23/13
f 21/27/13 22/26/13 14/25/13
f 15/28/13 21/27/13 14/25/13
f 6/24/13 4/23/13 15/28/13
f 14/25/13 6/24/13 15/28/13
f 1/19/14 5/18/14 13/17/14
f 16/20/14 1/19/14 13/17/14
f 23/22/14 24/21/14 16/20/14
f 13/17/14 23/22/14 16/20/14
f 5/18/14 1/19/14 2/23/14
f 8/24/14 5/18/14 2/23/14
f 19/27/14 20/26/14 12/25/14
f 9/28/14 19/27/14 12/25/14
f 8/24/14 2/23/14 9/28/14
f 12/25/14 8/24/14 9/28/14

