mtllib ./platform 6 base.mtl
o UModeler Object
v -1.5 0.25 -2.5
v -1.5 0.25 2.5
v -2.5 0.5 2.5
v -2.5 0.5 -2.5
v -1.5 -0.25 2.5
v -1.5 -0.25 -2.5
v -2.5 0 -2.5
v -2.5 0 2.5
v -2.6875 0.15625 -2.5
v -2.6875 0.34375 -2.5
v -2.6875 0.34375 2.5
v -2.6875 0.15625 2.5
v 2.6875 0.34375 0.07499981
v 2.6875 0.15625 0.07499981
v 2.6875 0.15625 5.075
v 2.6875 0.34375 5.075
v 2.5 0.5 5.075
v 2.5 0.5 0.07499981
v 2.5 0 5.075
v 1.5 0.25 5.075
v 1.5 0.25 0.07499981
v 1.5 -0.25 5.075
v 1.5 -0.25 0.07499981
v 2.5 0 0.07499981

vt 1.5 -2.5
vt 1.5 2.5
vt 2.5 2.5
vt 2.5 -2.5
vt -1.5 -2.5
vt -1.5 2.5
vt -2.5 2.5
vt -2.5 -2.5
vt -2.5 0.15625
vt -2.5 0.34375
vt 2.5 0.34375
vt 2.5 0.15625
vt -2.6875 -2.5
vt -2.6875 2.5
vt 2.6875 -2.5
vt 2.6875 2.5
vt 2.5 0.5
vt 2.6875 0.34375
vt 2.6875 0.15625
vt 2.5 0
vt 1.5 -0.25
vt 1.5 0.25
vt -2.5 0.5
vt -1.5 0.25
vt -1.5 -0.25
vt -2.5 0
vt -2.6875 0.15625
vt -2.6875 0.34375
vt -0.07499981 0.34375
vt -0.07499981 0.15625
vt -5.075 0.15625
vt -5.075 0.34375
vt -2.6875 5.075
vt -2.5 5.075
vt -2.5 0.07499981
vt -2.6875 0.07499981
vt -1.5 5.075
vt -1.5 0.07499981
vt 2.6875 -0.07499981
vt 2.5 -0.07499981
vt 2.5 -5.075
vt 2.6875 -5.075
vt 1.5 -0.07499981
vt 1.5 -5.075

vn 0.2425356 0.9701425 0
vn -0.2425356 -0.9701425 0
vn -1 0 0
vn -0.6401844 -0.7682213 0
vn -0.6401844 0.7682213 0
vn 0 0 -1
vn 0 0 1
vn 1 0 0
vn 0.6401844 0.7682213 0
vn -0.2425356 0.9701425 0
vn 0.6401844 -0.7682213 0
vn 0 1 0
vn -0.6513119 0 0.7588101
vn 0.6513119 0 -0.7588101
vn 0.2425356 -0.9701425 0
vn 0 -1 0

usemtl M_YMMR_11
f 3/3/1 2/2/1 1/1/1
f 4/4/1 3/3/1 1/1/1
f 7/7/2 6/6/2 5/5/2
f 8/8/2 7/7/2 5/5/2
f 11/11/3 10/10/3 9/9/3
f 12/12/3 11/11/3 9/9/3
f 7/7/4 8/8/4 12/13/4
f 9/14/4 7/7/4 12/13/4
f 3/3/5 4/4/5 10/15/5
f 11/16/5 3/3/5 10/15/5
f 9/19/6 10/18/6 4/17/6
f 7/20/6 9/19/6 4/17/6
f 1/22/6 6/21/6 7/20/6
f 4/17/6 1/22/6 7/20/6
f 5/25/7 2/24/7 3/23/7
f 8/26/7 5/25/7 3/23/7
f 11/28/7 12/27/7 8/26/7
f 3/23/7 11/28/7 8/26/7
f 15/31/8 14/30/8 13/29/8
f 16/32/8 15/31/8 13/29/8
f 18/35/9 17/34/9 16/33/9
f 13/36/9 18/35/9 16/33/9
f 15/19/7 16/18/7 17/17/7
f 19/20/7 15/19/7 17/17/7
f 18/35/10 21/38/10 20/37/10
f 17/34/10 18/35/10 20/37/10
f 20/22/7 22/21/7 19/20/7
f 17/17/7 20/22/7 19/20/7
f 23/25/6 21/24/6 18/23/6
f 24/26/6 23/25/6 18/23/6
f 13/28/6 14/27/6 24/26/6
f 18/23/6 13/28/6 24/26/6
f 19/41/11 24/40/11 14/39/11
f 15/42/11 19/41/11 14/39/11
f 21/38/12 1/1/12 2/2/12
f 20/37/12 21/38/12 2/2/12
f 2/24/13 5/25/13 22/21/13
f 20/22/13 2/24/13 22/21/13
f 21/24/14 23/25/14 6/21/14
f 1/22/14 21/24/14 6/21/14
f 19/41/15 22/44/15 23/43/15
f 24/40/15 19/41/15 23/43/15
f 23/43/16 22/44/16 5/5/16
f 6/6/16 23/43/16 5/5/16

