mtllib ./platform 3 emission speed.mtl
o UModeler Object
v 0.921875 0.09474945 -2.5
v 0.921875 0.0009994507 -2.5
v 1.078125 0.1572495 -2.5
v 1.078125 0.3447495 -2.5
v 0.921875 0.5009995 -2.5
v 0.921875 0.4072495 -2.5
v 1.015625 0.3134995 -2.5
v 1.015625 0.1884995 -2.5
v 1.078125 0.3447495 2.5
v 0.921875 0.5009995 2.5
v -0.921875 1.000999 -2.5
v -0.921875 1.094749 -2.5
v -1.078125 0.9384995 -2.5
v -1.078125 0.7509995 -2.5
v -0.921875 0.5947495 -2.5
v -0.921875 0.6884995 -2.5
v -1.015625 0.7822495 -2.5
v -1.015625 0.9072495 -2.5
v -1.078125 0.9072495 2.5
v -0.921875 1.094749 2.5
v -1.078125 0.7509995 2.5
v -0.921875 0.5947495 2.5
v -0.921875 0.6884995 2.5
v -0.921875 1.000999 2.5
v -1.015625 0.8759995 2.5
v -1.015625 0.7822495 2.5
v 0.921875 0.4072495 2.5
v 1.078125 0.1572495 2.5
v 0.921875 0.0009994507 2.5
v 0.921875 0.09474945 2.5
v 1.015625 0.1884995 2.5
v 1.015625 0.3134995 2.5
v -0.06218899 0.5094908 1.52972
v -0.06218899 0.5094908 1.77947
v -0.4353233 0.7904598 1.404845
v -0.4353233 0.7904598 1.155094
v 0.4353234 0.5094908 1.155094
v 0.4353234 0.5094908 1.404845
v -0.06218899 0.5094908 0.780469
v -0.06218899 0.5094908 0.5307188
v 0.4353234 0.5094908 0.1560934
v 0.4353234 0.5094908 0.4058437
v -0.4353233 0.7904598 0.4058437
v -0.4353233 0.7904598 0.1560934
v -0.06218899 0.5094908 -0.2185319
v -0.06218899 0.5094908 -0.4682821
v 0.4353234 0.5094908 -0.8429075
v 0.4353234 0.5094908 -0.5931572
v -0.4353233 0.7904598 -0.5931572
v -0.4353233 0.7904598 -0.8429075
v -0.06218899 0.5094908 -1.467283
v -0.06218899 0.5094908 -1.217533
v -0.4353233 0.7904598 -1.592158
v -0.4353233 0.7904598 -1.841908
v 0.4353234 0.5094908 -1.841908
v 0.4353234 0.5094908 -1.592158

vt -0.921875 0.09474945
vt -0.921875 0.0009994507
vt -1.078125 0.1572495
vt -1.078125 0.3447495
vt -0.921875 0.5009995
vt -0.921875 0.4072495
vt -1.015625 0.3134995
vt -1.015625 0.1884995
vt -1.078125 2.5
vt -0.921875 2.5
vt -0.921875 -2.5
vt -1.078125 -2.5
vt 0.921875 1.000999
vt 0.921875 1.094749
vt 1.078125 0.9384995
vt 1.078125 0.7509995
vt 0.921875 0.5947495
vt 0.921875 0.6884995
vt 1.015625 0.7822495
vt 1.015625 0.9072495
vt 1.078125 2.5
vt 1.078125 -2.5
vt 0.921875 -2.5
vt 0.921875 2.5
vt -2.5 0.7509995
vt -2.5 0.9384995
vt 2.5 0.9072495
vt 2.5 0.7509995
vt -0.921875 0.6884995
vt -0.921875 0.5947495
vt -1.078125 0.7509995
vt -1.078125 0.9072495
vt -0.921875 1.094749
vt -0.921875 1.000999
vt -1.015625 0.8759995
vt -1.015625 0.7822495
vt 0.921875 0.4072495
vt 0.921875 0.5009995
vt 1.078125 0.3447495
vt 1.078125 0.1572495
vt 0.921875 0.0009994507
vt 0.921875 0.09474945
vt 1.015625 0.1884995
vt 1.015625 0.3134995
vt -2.5 0.1572495
vt -2.5 0.3447495
vt 2.5 0.3447495
vt 2.5 0.1572495
vt 0.06218898 1.52972
vt 0.06218898 1.77947
vt 0.4353233 1.404845
vt 0.4353233 1.155094
vt -0.4353235 1.155094
vt -0.4353235 1.404845
vt 0.06218898 0.780469
vt 0.06218898 0.5307188
vt -0.4353235 0.1560934
vt -0.4353235 0.4058437
vt 0.4353233 0.4058437
vt 0.4353233 0.1560934
vt 0.06218898 -0.2185319
vt 0.06218898 -0.4682821
vt -0.4353235 -0.8429074
vt -0.4353235 -0.5931573
vt 0.4353233 -0.5931573
vt 0.4353233 -0.8429074
vt 0.06218898 -1.467283
vt 0.06218898 -1.217533
vt 0.4353233 -1.592158
vt 0.4353233 -1.841908
vt -0.4353235 -1.841908
vt -0.4353235 -1.592158

vn 0 0 -1
vn 0.7071068 0.7071068 0
vn -0.7070999 0.7070999 0.004419374
vn -0.7682213 0.6401844 0
vn -1 0 0
vn -0.7071068 -0.7071068 0
vn 0 0 1
vn 1 0 0
vn 0.7071068 -0.7071068 0
vn 0.6015311 0.7988493 0
vn 0 1 0

usemtl red_glow
f 2/2/1 1/1/1 3/3/1
f 3/3/1 1/1/1 8/8/1
f 3/3/1 8/8/1 7/7/1
f 3/3/1 7/7/1 4/4/1
f 4/4/1 7/7/1 6/6/1
f 4/4/1 6/6/1 5/5/1
f 5/11/2 10/10/2 9/9/2
f 4/12/2 5/11/2 9/9/2
f 16/18/1 15/17/1 14/16/1
f 16/18/1 14/16/1 17/19/1
f 17/19/1 14/16/1 18/20/1
f 18/20/1 14/16/1 13/15/1
f 18/20/1 13/15/1 11/13/1
f 11/13/1 13/15/1 12/14/1
f 12/23/3 13/22/3 19/21/3
f 20/24/4 12/23/4 19/21/4
f 19/27/5 13/26/5 14/25/5
f 21/28/5 19/27/5 14/25/5
f 15/10/6 22/11/6 21/12/6
f 14/9/6 15/10/6 21/12/6
f 22/30/7 23/29/7 21/31/7
f 21/31/7 23/29/7 26/36/7
f 21/31/7 26/36/7 25/35/7
f 21/31/7 25/35/7 19/32/7
f 19/32/7 25/35/7 24/34/7
f 19/32/7 24/34/7 20/33/7
f 30/42/7 29/41/7 28/40/7
f 30/42/7 28/40/7 31/43/7
f 31/43/7 28/40/7 32/44/7
f 32/44/7 28/40/7 9/39/7
f 32/44/7 9/39/7 27/37/7
f 27/37/7 9/39/7 10/38/7
f 4/47/8 9/46/8 28/45/8
f 3/48/8 4/47/8 28/45/8
f 29/23/9 2/24/9 3/21/9
f 28/22/9 29/23/9 3/21/9
f 35/51/10 34/50/10 33/49/10
f 36/52/10 35/51/10 33/49/10
f 37/53/11 33/49/11 34/50/11
f 38/54/11 37/53/11 34/50/11
f 41/57/11 40/56/11 39/55/11
f 42/58/11 41/57/11 39/55/11
f 43/59/10 39/55/10 40/56/10
f 44/60/10 43/59/10 40/56/10
f 47/63/11 46/62/11 45/61/11
f 48/64/11 47/63/11 45/61/11
f 49/65/10 45/61/10 46/62/10
f 50/66/10 49/65/10 46/62/10
f 53/69/10 52/68/10 51/67/10
f 54/70/10 53/69/10 51/67/10
f 55/71/11 51/67/11 52/68/11
f 56/72/11 55/71/11 52/68/11

