mtllib ./platform 2 emission speed.mtl
o UModeler Object (5)
v 1.5 0.09475 -2.5
v 1.5 0.001 -2.5
v 1.65625 0.15725 -2.5
v 1.65625 0.34475 -2.5
v 1.5 0.501 -2.5
v 1.5 0.40725 -2.5
v 1.59375 0.3135 -2.5
v 1.59375 0.1885 -2.5
v 1.65625 0.34475 2.5
v 1.5 0.501 2.5
v 1.65625 0.15725 2.5
v 1.5 0.001 2.5
v -1.65625 0.34475 -2.5
v -1.5 0.501 -2.5
v -1.5 0.501 2.5
v -1.65625 0.34475 2.5
v -1.65625 0.15725 -2.5
v -1.65625 0.15725 2.5
v -1.5 0.40725 -2.5
v -1.5 0.001 -2.5
v -1.5 0.09475 -2.5
v -1.59375 0.1885 -2.5
v -1.59375 0.3135 -2.5
v -1.5 0.001 2.5
v -1.5 0.09475 2.5
v -1.5 0.40725 2.5
v -1.59375 0.3135 2.5
v -1.59375 0.1885 2.5
v 0.7180319 0.5004994 -0.4995005
v 2.235174E-08 0.5004994 -0.03121878
v -0.7492507 0.5004994 -0.4995005
v -0.7492507 0.5004994 -0.7492507
v 2.235174E-08 0.5004994 -0.280969
v 0.7180319 0.5004994 -0.7492507
v 2.235174E-08 0.5004994 0.9365634
v -0.7492507 0.5004994 0.4995005
v -0.7492507 0.4995005 0.2497502
v 2.235174E-08 0.5004994 0.7180319
v 0.7492507 0.5004994 0.2497502
v 0.7492507 0.5004994 0.4995005
v -0.7180319 -0.001003225 -0.4995005
v 2.824663E-08 -0.000998988 -0.03121878
v 0.7492507 -0.0009945668 -0.4995005
v 0.7492507 -0.0009945668 -0.7492507
v 2.824663E-08 -0.000998988 -0.280969
v -0.7180319 -0.001003225 -0.7492507
v 2.824663E-08 -0.000998988 0.9365634
v 0.7492507 -0.0009945668 0.4995005
v 0.7492507 4.421223E-06 0.2497502
v 2.824663E-08 -0.000998988 0.7180319
v -0.7492507 -0.001003409 0.2497502
v -0.7492507 -0.001003409 0.4995005

vt -1.5 0.09474999
vt -1.5 0.0009999871
vt -1.65625 0.15725
vt -1.65625 0.34475
vt -1.5 0.501
vt -1.5 0.40725
vt -1.59375 0.3135
vt -1.59375 0.1885
vt -1.65625 2.5
vt -1.5 2.5
vt -1.5 -2.5
vt -1.65625 -2.5
vt -2.5 0.15725
vt -2.5 0.34475
vt 2.5 0.34475
vt 2.5 0.15725
vt 1.65625 2.5
vt 1.5 2.5
vt 1.5 -2.5
vt 1.65625 -2.5
vt 1.5 0.40725
vt 1.5 0.501
vt 1.65625 0.34475
vt 1.65625 0.15725
vt 1.5 0.0009999871
vt 1.5 0.09474999
vt 1.59375 0.1885
vt 1.59375 0.3135
vt -0.7180319 -0.4995005
vt 0 -0.03121877
vt 0.7492507 -0.4995005
vt 0.7492507 -0.7492507
vt 0 -0.280969
vt -0.7180319 -0.7492507
vt 0 0.9365634
vt 0.7492507 0.4995005
vt 0.7492507 0.2497502
vt 0 0.7180319
vt -0.7492507 0.2497502
vt -0.7492507 0.4995005
vt -0.7180319 0.4995005
vt 2.980232E-08 0.03121877
vt 0.7492507 0.7492507
vt 2.980232E-08 0.280969
vt -0.7180319 0.7492507
vt 2.980232E-08 -0.9365634
vt 0.7492507 -0.2497503
vt 2.980232E-08 -0.7180319
vt -0.7492507 -0.2497503
vt -0.7492507 -0.4995005

vn 0 0 -1
vn 0.7071068 0.7071068 0
vn 1 0 0
vn 0.7071068 -0.7071068 0
vn -0.7071068 0.7071068 0
vn -1 0 0
vn -0.7071068 -0.7071068 0
vn 0 0 1
vn 0 1 0
vn 0.002333246 0.9999893 -0.003999849
vn -0.001333296 0.9999991 2.672866E-10
vn 5.900857E-06 -1 0
vn -0.002327377 -0.9999893 -0.003999906
vn 0.001339216 -0.9999991 -8.070487E-11

usemtl red_glow
f 2/2/1 1/1/1 3/3/1
f 3/3/1 1/1/1 8/8/1
f 3/3/1 8/8/1 7/7/1
f 3/3/1 7/7/1 4/4/1
f 4/4/1 7/7/1 6/6/1
f 4/4/1 6/6/1 5/5/1
f 5/11/2 10/10/2 9/9/2
f 4/12/2 5/11/2 9/9/2
f 4/15/3 9/14/3 11/13/3
f 3/16/3 4/15/3 11/13/3
f 12/19/4 2/18/4 3/17/4
f 11/20/4 12/19/4 3/17/4
f 15/18/5 14/19/5 13/20/5
f 16/17/5 15/18/5 13/20/5
f 16/15/6 13/14/6 17/13/6
f 18/16/6 16/15/6 17/13/6
f 21/26/1 20/25/1 17/24/1
f 21/26/1 17/24/1 22/27/1
f 22/27/1 17/24/1 23/28/1
f 23/28/1 17/24/1 13/23/1
f 23/28/1 13/23/1 19/21/1
f 19/21/1 13/23/1 14/22/1
f 20/10/7 24/11/7 18/12/7
f 17/9/7 20/10/7 18/12/7
f 24/2/8 25/1/8 18/3/8
f 18/3/8 25/1/8 28/8/8
f 18/3/8 28/8/8 27/7/8
f 18/3/8 27/7/8 16/4/8
f 16/4/8 27/7/8 26/6/8
f 16/4/8 26/6/8 15/5/8
f 32/32/9 31/31/9 30/30/9
f 32/32/9 30/30/9 33/33/9
f 33/33/9 30/30/9 29/29/9
f 33/33/9 29/29/9 34/34/9
f 37/37/10 36/36/10 35/35/10
f 37/37/11 35/35/11 38/38/11
f 35/35/9 40/40/9 39/39/9
f 38/38/9 35/35/9 39/39/9
f 41/41/12 46/45/12 45/44/12
f 41/41/12 45/44/12 42/42/12
f 42/42/12 45/44/12 44/43/12
f 42/42/12 44/43/12 43/36/12
f 49/47/13 48/31/13 47/46/13
f 49/47/14 47/46/14 50/48/14
f 47/46/12 52/50/12 51/49/12
f 50/48/12 47/46/12 51/49/12

