mtllib ./platform Start base.mtl
o UModeler Object
v -2.5 0 2.5
v 2.5 0 2.5
v 2.5 0 -2.5
v -2.5 0 -2.5
v -2 0 -2
v 2 0 -2
v 2 0 2
v -2 0 2
v 1.5 -0.09375 -1.5
v -1.5 -0.09375 -1.5
v -1.5 -0.09375 1.5
v 1.5 -0.09375 1.5
v 0 0.34375 2.65625
v -2.65625 0.34375 2.65625
v -2.5 0.5 2.5
v 0 0.5 2.5
v 0 0.15625 2.65625
v -2.65625 0.15625 2.65625
v 0 0 2.5
v 2.6875 0.34375 2.65625
v 2.6875 0.15625 2.65625
v 2.5 0.5 2.5
v 0 0.34375 -2.6875
v -2.65625 0.34375 -2.6875
v -2.65625 0.15625 -2.6875
v 0 0.15625 -2.6875
v 0 0 -2.5
v 2.6875 0.15625 -2.6875
v 2.6875 0.34375 -2.6875
v 2.5 0.5 -2.5
v 0 0.5 -2.5
v -2.5 0.5 -2.5
v 2.21875 0.5 -2.21875
v 1.71875 0.40625 -1.71875
v -1.71875 0.40625 -1.71875
v -2.21875 0.5 -2.21875
v 2.21875 0.5 2.21875
v -2.21875 0.5 2.21875
v -1.71875 0.40625 1.71875
v 1.71875 0.40625 1.71875

vt -2.5 -2.5
vt 2.5 -2.5
vt 2.5 2.5
vt -2.5 2.5
vt -2 2
vt 2 2
vt 2 -2
vt -2 -2
vt 1.5 1.5
vt -1.5 1.5
vt -1.5 -1.5
vt 1.5 -1.5
vt 0 2.65625
vt 2.65625 2.65625
vt 0 2.5
vt 0 0.15625
vt -2.65625 0.15625
vt -2.65625 0.34375
vt 0 0.34375
vt 0 -2.5
vt -2.65625 -2.65625
vt 0 -2.65625
vt 2.6875 0.34375
vt 2.6875 0.15625
vt 2.6875 -2.65625
vt -2.6875 2.65625
vt 2.65625 0.34375
vt 2.65625 0.15625
vt 0 2.6875
vt -2.65625 2.6875
vt -2.6875 0.15625
vt -2.6875 0.34375
vt 2.6875 2.6875
vt -2.6875 -2.6875
vt 0 -2.6875
vt 2.65625 -2.6875
vt -2.21875 -2.21875
vt -1.71875 -1.71875
vt 1.71875 -1.71875
vt 2.21875 -2.21875
vt -2.21875 2.21875
vt 2.21875 2.21875
vt 1.71875 1.71875
vt -1.71875 1.71875

vn 0 -1 0
vn 0 -0.9828721 -0.1842885
vn 0.1842885 -0.9828721 0
vn -0.1842885 -0.9828721 0
vn 0 -0.9828721 0.1842885
vn 0 0.7071068 0.7071068
vn 0 0 1
vn 0 -0.7071068 0.7071068
vn 0 0 -1
vn 0 -0.7682213 -0.6401844
vn 1 0 0
vn 0.6401844 -0.7682213 0
vn 0.6401844 0.7682213 0
vn 0 0.7682213 -0.6401844
vn -1 0 0
vn -0.7071068 0.7071068 0
vn -0.7071068 -0.7071068 0
vn 0 0.9828721 0.1842885
vn 0 0.9828721 -0.1842885
vn 0.1842885 0.9828721 0
vn 0 1 0
vn -0.1842885 0.9828721 0

usemtl M_YMMR_11
f 5/5/1 4/4/1 6/6/1
f 6/6/1 4/4/1 3/3/1
f 6/6/1 3/3/1 7/7/1
f 7/7/1 3/3/1 2/2/1
f 4/4/1 5/5/1 1/1/1
f 1/1/1 5/5/1 8/8/1
f 1/1/1 8/8/1 7/7/1
f 1/1/1 7/7/1 2/2/1
f 11/11/1 10/10/1 9/9/1
f 12/12/1 11/11/1 9/9/1
f 10/10/2 5/5/2 6/6/2
f 9/9/2 10/10/2 6/6/2
f 9/9/3 6/6/3 7/7/3
f 12/12/3 9/9/3 7/7/3
f 5/5/4 10/10/4 11/11/4
f 8/8/4 5/5/4 11/11/4
f 11/11/5 12/12/5 7/7/5
f 8/8/5 11/11/5 7/7/5
f 15/3/6 14/14/6 13/13/6
f 16/15/6 15/3/6 13/13/6
f 14/18/7 18/17/7 17/16/7
f 13/19/7 14/18/7 17/16/7
f 18/21/8 1/1/8 19/20/8
f 17/22/8 18/21/8 19/20/8
f 21/24/7 20/23/7 13/19/7
f 17/16/7 21/24/7 13/19/7
f 2/2/8 21/25/8 17/22/8
f 19/20/8 2/2/8 17/22/8
f 20/26/6 22/4/6 16/15/6
f 13/13/6 20/26/6 16/15/6
f 25/28/9 24/27/9 23/19/9
f 26/16/9 25/28/9 23/19/9
f 4/4/10 25/30/10 26/29/10
f 27/15/10 4/4/10 26/29/10
f 29/32/9 28/31/9 26/16/9
f 23/19/9 29/32/9 26/16/9
f 28/33/10 3/3/10 27/15/10
f 26/29/10 28/33/10 27/15/10
f 29/23/11 20/18/11 21/17/11
f 28/24/11 29/23/11 21/17/11
f 2/2/12 3/3/12 28/33/12
f 21/25/12 2/2/12 28/33/12
f 30/1/13 22/4/13 20/26/13
f 29/34/13 30/1/13 20/26/13
f 30/1/14 29/34/14 23/35/14
f 31/20/14 30/1/14 23/35/14
f 24/36/14 32/2/14 31/20/14
f 23/35/14 24/36/14 31/20/14
f 14/27/15 24/32/15 25/31/15
f 18/28/15 14/27/15 25/31/15
f 15/3/16 32/2/16 24/36/16
f 14/14/16 15/3/16 24/36/16
f 4/4/17 1/1/17 18/21/17
f 25/30/17 4/4/17 18/21/17
f 35/39/18 34/38/18 33/37/18
f 36/40/18 35/39/18 33/37/18
f 39/43/19 38/42/19 37/41/19
f 40/44/19 39/43/19 37/41/19
f 38/42/20 39/43/20 35/39/20
f 36/40/20 38/42/20 35/39/20
f 38/42/21 15/3/21 37/41/21
f 37/41/21 15/3/21 22/4/21
f 37/41/21 22/4/21 33/37/21
f 33/37/21 22/4/21 30/1/21
f 15/3/21 38/42/21 32/2/21
f 32/2/21 38/42/21 36/40/21
f 32/2/21 36/40/21 33/37/21
f 32/2/21 33/37/21 30/1/21
f 40/44/22 37/41/22 33/37/22
f 34/38/22 40/44/22 33/37/22
f 35/39/21 39/43/21 40/44/21
f 34/38/21 35/39/21 40/44/21

