mtllib ./platform 6 base v2.mtl
o base
v 1.5 0.25 0.07499981
v -1.5 0.25 2.5
v -1.5 0.25 -2.5
v 1.5 0.25 5.075
v 1.5 -0.25 5.075
v -1.5 -0.25 2.5
v -1.5 -0.25 -2.5
v 1.5 -0.25 0.07499981
v 1.9375 0.5 0.08349991
v 2.125 0.34375 5.0835
v 1.9375 0.5 5.0835
v 2.125 0.34375 0.08349991
v 1.9375 0 0.08349991
v 2.125 0.15625 5.0835
v 1.9375 0 5.0835
v 2.125 0.15625 0.08349991
v -2.125 0.34375 2.48975
v -2.125 0.15625 -2.51025
v -2.125 0.34375 -2.51025
v -2.125 0.15625 2.48975
v -1.9375 0.5 2.48975
v -1.9375 0 2.48975
v -1.9375 0.5 -2.51025
v -1.9375 0 -2.51025

vt -1.5 0.07499981
vt 1.5 2.5
vt 1.5 -2.5
vt -1.5 5.075
vt -1.5 0.25
vt 1.5 -0.25
vt -1.5 -0.25
vt 1.5 0.25
vt 1.5 -0.07499981
vt -1.5 -2.5
vt 1.5 -5.075
vt -1.5 2.5
vt -2.5 0.07499981
vt -2.6875 5.075
vt -2.5 5.075
vt -2.6875 0.07499981
vt -2.5 0.5
vt -2.5 0
vt -2.6875 0.34375
vt -5.075 0.34375
vt -0.07499981 0.34375
vt -5.075 0.15625
vt 2.6875 0.15625
vt 2.5 0.5
vt 2.6875 0.34375
vt 2.5 0
vt -0.07499981 0.15625
vt -2.6875 0.15625
vt 2.6875 -5.075
vt 2.6875 -0.07499981
vt 2.5 -5.075
vt 2.5 -0.07499981
vt 2.5 0.34375
vt -2.5 0.15625
vt -2.5 0.34375
vt 2.5 0.15625
vt 2.6875 2.5
vt 2.6875 -2.5
vt 2.5 2.5
vt 2.5 -2.5
vt -2.6875 2.5
vt -2.6875 -2.5
vt -2.5 2.5
vt -2.5 -2.5

vn 0 1 0
vn -0.6513119 2.729707E-07 0.7588101
vn 0.651312 0 -0.7588101
vn 0 -1 0
vn 0.6401844 0.7682213 2.100269E-10
vn -0.4961389 0.8682432 -1.953953E-09
vn 0.01942513 1.357309E-09 -0.9998114
vn 0 0 -1
vn 1 0 0
vn 0 0 1
vn -0.01942513 0 0.9998113
vn 0.6401844 -0.7682213 0
vn 0.496139 -0.8682432 -3.816266E-09
vn -1 0 0
vn -0.6401844 0.7682213 0
vn 0.4961389 0.8682432 0
vn -0.02342235 0 0.9997256
vn 0.02342235 0 -0.9997257
vn -0.6401844 -0.7682213 0
vn -0.4961389 -0.8682432 0

usemtl M_YMMR_11
f 3/3/1 2/2/1 1/1/1
f 1/1/1 2/2/1 4/4/1
f 6/7/2 5/6/2 2/5/2
f 2/5/2 5/6/2 4/8/2
f 8/7/3 7/6/3 1/5/3
f 1/5/3 7/6/3 3/8/3
f 5/11/4 6/10/4 8/9/4
f 8/9/4 6/10/4 7/12/4
f 11/15/5 10/14/5 9/13/5
f 9/13/5 10/14/5 12/16/5
f 1/1/6 4/4/6 9/13/6
f 9/13/6 4/4/6 11/15/6
f 1/5/7 9/17/7 8/7/7
f 8/7/7 9/17/7 13/18/7
f 12/19/8 13/18/8 9/17/8
f 14/22/9 12/21/9 10/20/9
f 10/25/10 11/24/10 14/23/10
f 14/23/10 11/24/10 15/26/10
f 4/8/11 15/26/11 11/24/11
f 16/27/9 12/21/9 14/22/9
f 16/28/8 13/18/8 12/19/8
f 15/31/12 16/30/12 14/29/12
f 13/32/12 16/30/12 15/31/12
f 5/6/11 15/26/11 4/8/11
f 5/11/13 8/9/13 15/31/13
f 15/31/13 8/9/13 13/32/13
f 19/35/14 18/34/14 17/33/14
f 17/33/14 18/34/14 20/36/14
f 21/39/15 19/38/15 17/37/15
f 17/19/10 22/18/10 21/17/10
f 20/28/10 22/18/10 17/19/10
f 23/40/15 19/38/15 21/39/15
f 19/25/8 23/24/8 18/23/8
f 2/2/16 3/3/16 21/39/16
f 21/39/16 3/3/16 23/40/16
f 2/5/17 21/17/17 6/7/17
f 6/7/17 21/17/17 22/18/17
f 18/23/8 23/24/8 24/26/8
f 3/8/18 24/26/18 23/24/18
f 24/43/19 20/42/19 18/41/19
f 22/44/19 20/42/19 24/43/19
f 7/12/20 6/10/20 24/43/20
f 24/43/20 6/10/20 22/44/20
f 7/6/18 24/26/18 3/8/18

